<svg aria-hidden="true" style="position: absolute; width: 0; height: 0; overflow: hidden;" version="1.1" xmlns="http://www.w3.org/2000/svg" xmlns:xlink="http://www.w3.org/1999/xlink">
<defs>
<symbol id="icon-chevron-thin-left" viewBox="0 0 20 20">
<title>chevron-thin-left</title>
<path d="M13.891 17.418c0.268 0.272 0.268 0.709 0 0.979s-0.701 0.271-0.969 0l-7.83-7.908c-0.268-0.27-0.268-0.707 0-0.979l7.83-7.908c0.268-0.27 0.701-0.27 0.969 0s0.268 0.709 0 0.979l-7.141 7.419 7.141 7.418z"></path>
</symbol>
<symbol id="icon-chevron-thin-right" viewBox="0 0 20 20">
<title>chevron-thin-right</title>
<path d="M13.25 10l-7.141-7.42c-0.268-0.27-0.268-0.707 0-0.979 0.268-0.27 0.701-0.27 0.969 0l7.83 7.908c0.268 0.271 0.268 0.709 0 0.979l-7.83 7.908c-0.268 0.271-0.701 0.27-0.969 0s-0.268-0.707 0-0.979l7.141-7.417z"></path>
</symbol>
<symbol id="icon-rocket" viewBox="0 0 20 20">
<title>rocket</title>
<path d="M11.933 13.069c0 0 7.059-5.094 6.276-10.924-0.017-0.127-0.059-0.213-0.112-0.268-0.054-0.055-0.137-0.098-0.263-0.115-5.697-0.801-10.674 6.422-10.674 6.422-4.318-0.517-4.004 0.344-5.974 5.076-0.377 0.902 0.234 1.213 0.904 0.959 0.67-0.252 2.148-0.811 2.148-0.811l2.59 2.648c0 0-0.546 1.514-0.793 2.199s0.055 1.311 0.938 0.926c4.624-2.016 5.466-1.694 4.96-6.112zM12.942 7.153c-0.598-0.613-0.598-1.604 0-2.217 0.598-0.611 1.567-0.611 2.166 0s0.598 1.603 0 2.217c-0.599 0.611-1.569 0.611-2.166 0z"></path>
</symbol>
</defs>
</svg>
